HIERARCHY
ROOT Hips
{
	OFFSET -14.64140 90.27770 -84.91600
	CHANNELS 6 Xposition Yposition Zposition Zrotation Xrotation Yrotation
	JOINT Spine
	{
		OFFSET 0.00000 13.20850 -1.60436
		CHANNELS 3 Zrotation Xrotation Yrotation
		JOINT Spine1
		{
			OFFSET 0.00000 8.61716 0.00000
			CHANNELS 3 Zrotation Xrotation Yrotation
			JOINT Spine2
			{
				OFFSET 0.00000 8.61717 0.00000
				CHANNELS 3 Zrotation Xrotation Yrotation
				JOINT Spine3
				{
					OFFSET 0.00000 8.61717 0.00000
					CHANNELS 3 Zrotation Xrotation Yrotation
					JOINT Neck
					{
						OFFSET 0.00000 11.07920 1.10792
						CHANNELS 3 Zrotation Xrotation Yrotation
						JOINT Neck1
						{
							OFFSET 0.00000 7.08032 0.00000
							CHANNELS 3 Zrotation Xrotation Yrotation
							JOINT Head
							{
								OFFSET 0.00000 7.08031 0.00000
								CHANNELS 3 Zrotation Xrotation Yrotation
								End site
								{
									OFFSET 0.00000 0.00000 0.00000
								}
							}
						}
					}
					JOINT RightShoulder
					{
						OFFSET -0.01000 7.91373 5.19711
						CHANNELS 3 Zrotation Xrotation Yrotation
						JOINT RightArm
						{
							OFFSET -18.41580 0.00000 0.00000
							CHANNELS 3 Zrotation Xrotation Yrotation
							JOINT RightForeArm
							{
								OFFSET -29.11090 0.00000 0.00000
								CHANNELS 3 Zrotation Xrotation Yrotation
								JOINT RightHand
								{
									OFFSET -24.65040 0.00000 0.00000
									CHANNELS 3 Zrotation Xrotation Yrotation
									JOINT RightHandThumb1
									{
										OFFSET -5.35114 -0.85590 3.97906
										CHANNELS 3 Zrotation Xrotation Yrotation
										JOINT RightHandThumb2
										{
											OFFSET -4.52789 0.00000 0.00000
											CHANNELS 3 Zrotation Xrotation Yrotation
											JOINT RightHandThumb3
											{
												OFFSET -2.46976 0.00000 0.00000
												CHANNELS 3 Zrotation Xrotation Yrotation
												End site
												{
													OFFSET 0.00000 0.00000 0.00000
												}
											}
										}
									}
									JOINT RightHandIndex1
									{
										OFFSET -14.26970 0.00000 2.88139
										CHANNELS 3 Zrotation Xrotation Yrotation
										JOINT RightHandIndex2
										{
											OFFSET -5.48836 0.00000 0.00000
											CHANNELS 3 Zrotation Xrotation Yrotation
											JOINT RightHandIndex3
											{
												OFFSET -3.01859 0.00000 0.00000
												CHANNELS 3 Zrotation Xrotation Yrotation
												End site
												{
													OFFSET 0.00000 0.00000 0.00000
												}
											}
										}
									}
									JOINT RightHandMiddle1
									{
										OFFSET -14.26970 0.00000 -0.09147
										CHANNELS 3 Zrotation Xrotation Yrotation
										JOINT RightHandMiddle2
										{
											OFFSET -6.17441 0.00000 0.00000
											CHANNELS 3 Zrotation Xrotation Yrotation
											JOINT RightHandMiddle3
											{
												OFFSET -3.56743 0.00000 0.00000
												CHANNELS 3 Zrotation Xrotation Yrotation
												End site
												{
													OFFSET 0.00000 0.00000 0.00000
												}
											}
										}
									}
									JOINT RightHandRing1
									{
										OFFSET -12.69180 0.00000 -3.06433
										CHANNELS 3 Zrotation Xrotation Yrotation
										JOINT RightHandRing2
										{
											OFFSET -5.62556 0.00000 0.00000
											CHANNELS 3 Zrotation Xrotation Yrotation
											JOINT RightHandRing3
											{
												OFFSET -3.56744 0.00000 0.00000
												CHANNELS 3 Zrotation Xrotation Yrotation
												End site
												{
													OFFSET 0.00000 0.00000 0.00000
												}
											}
										}
									}
									JOINT RightHandPinky1
									{
										OFFSET -11.11390 0.00000 -6.03719
										CHANNELS 3 Zrotation Xrotation Yrotation
										JOINT RightHandPinky2
										{
											OFFSET -4.52789 0.00000 0.00000
											CHANNELS 3 Zrotation Xrotation Yrotation
											JOINT RightHandPinky3
											{
												OFFSET -2.46976 0.00000 0.00000
												CHANNELS 3 Zrotation Xrotation Yrotation
												End site
												{
													OFFSET 0.00000 0.00000 0.00000
												}
											}
										}
									}
								}
							}
						}
					}
					JOINT LeftShoulder
					{
						OFFSET 0.01000 7.91373 5.19711
						CHANNELS 3 Zrotation Xrotation Yrotation
						JOINT LeftArm
						{
							OFFSET 18.41580 0.00000 0.00000
							CHANNELS 3 Zrotation Xrotation Yrotation
							JOINT LeftForeArm
							{
								OFFSET 29.11090 0.00000 0.00000
								CHANNELS 3 Zrotation Xrotation Yrotation
								JOINT LeftHand
								{
									OFFSET 24.65040 0.00000 0.00000
									CHANNELS 3 Zrotation Xrotation Yrotation
									JOINT LeftHandThumb1
									{
										OFFSET 5.35114 -0.85590 3.97906
										CHANNELS 3 Zrotation Xrotation Yrotation
										JOINT LeftHandThumb2
										{
											OFFSET 4.52789 0.00000 0.00000
											CHANNELS 3 Zrotation Xrotation Yrotation
											JOINT LeftHandThumb3
											{
												OFFSET 2.46977 0.00000 0.00000
												CHANNELS 3 Zrotation Xrotation Yrotation
												End site
												{
													OFFSET 0.00000 0.00000 0.00000
												}
											}
										}
									}
									JOINT LeftHandIndex1
									{
										OFFSET 14.26970 0.00000 2.88139
										CHANNELS 3 Zrotation Xrotation Yrotation
										JOINT LeftHandIndex2
										{
											OFFSET 5.48836 0.00000 0.00000
											CHANNELS 3 Zrotation Xrotation Yrotation
											JOINT LeftHandIndex3
											{
												OFFSET 3.01859 0.00000 0.00000
												CHANNELS 3 Zrotation Xrotation Yrotation
												End site
												{
													OFFSET 0.00000 0.00000 0.00000
												}
											}
										}
									}
									JOINT LeftHandMiddle1
									{
										OFFSET 14.26970 0.00000 -0.09147
										CHANNELS 3 Zrotation Xrotation Yrotation
										JOINT LeftHandMiddle2
										{
											OFFSET 6.17440 0.00000 0.00000
											CHANNELS 3 Zrotation Xrotation Yrotation
											JOINT LeftHandMiddle3
											{
												OFFSET 3.56744 0.00000 0.00000
												CHANNELS 3 Zrotation Xrotation Yrotation
												End site
												{
													OFFSET 0.00000 0.00000 0.00000
												}
											}
										}
									}
									JOINT LeftHandRing1
									{
										OFFSET 12.69180 0.00000 -3.06433
										CHANNELS 3 Zrotation Xrotation Yrotation
										JOINT LeftHandRing2
										{
											OFFSET 5.62556 0.00000 0.00000
											CHANNELS 3 Zrotation Xrotation Yrotation
											JOINT LeftHandRing3
											{
												OFFSET 3.56744 0.00000 0.00000
												CHANNELS 3 Zrotation Xrotation Yrotation
												End site
												{
													OFFSET 0.00000 0.00000 0.00000
												}
											}
										}
									}
									JOINT LeftHandPinky1
									{
										OFFSET 11.11390 0.00000 -6.03719
										CHANNELS 3 Zrotation Xrotation Yrotation
										JOINT LeftHandPinky2
										{
											OFFSET 4.52789 0.00000 0.00000
											CHANNELS 3 Zrotation Xrotation Yrotation
											JOINT LeftHandPinky3
											{
												OFFSET 2.46976 0.00000 0.00000
												CHANNELS 3 Zrotation Xrotation Yrotation
												End site
												{
													OFFSET 0.00000 0.00000 0.00000
												}
											}
										}
									}
								}
							}
						}
					}
					JOINT pCube4
					{
						OFFSET 0.00000 10.91090 1.10792
						CHANNELS 3 Zrotation Xrotation Yrotation
						End site
						{
							OFFSET 0.00000 0.00000 0.00000
						}
					}
				}
			}
		}
	}
	JOINT RightUpLeg
	{
		OFFSET -9.98441 0.00000 0.00000
		CHANNELS 3 Zrotation Xrotation Yrotation
		JOINT RightLeg
		{
			OFFSET 0.00000 -42.11790 0.00000
			CHANNELS 3 Zrotation Xrotation Yrotation
			JOINT RightFoot
			{
				OFFSET 0.00000 -45.00020 -0.00001
				CHANNELS 3 Zrotation Xrotation Yrotation
				JOINT RightForeFoot
				{
					OFFSET 0.00000 -3.74820 0.00000
					CHANNELS 3 Zrotation Xrotation Yrotation
					JOINT RightToeBase
					{
						OFFSET 0.00000 0.06325 14.43120
						CHANNELS 3 Zrotation Xrotation Yrotation
						End site
						{
							OFFSET 0.00000 0.00000 0.00000
						}
					}
				}
			}
		}
	}
	JOINT LeftUpLeg
	{
		OFFSET 9.98441 0.00000 0.00000
		CHANNELS 3 Zrotation Xrotation Yrotation
		JOINT LeftLeg
		{
			OFFSET 0.00000 -42.11800 0.00000
			CHANNELS 3 Zrotation Xrotation Yrotation
			JOINT LeftFoot
			{
				OFFSET 0.00000 -45.00070 0.00000
				CHANNELS 3 Zrotation Xrotation Yrotation
				JOINT LeftForeFoot
				{
					OFFSET 0.00000 -3.74824 0.00000
					CHANNELS 3 Zrotation Xrotation Yrotation
					JOINT LeftToeBase
					{
						OFFSET 0.00000 0.06325 14.43110
						CHANNELS 3 Zrotation Xrotation Yrotation
						End site
						{
							OFFSET 0.00000 0.00000 0.00000
						}
					}
				}
			}
		}
	}
}
MOTION
Frames: 4
Frame Time: 0.050000
0.015434180264579607 0.01996464490894649 0.0011485256563839735 -0.03035119904583693 0.04724085216235085 -0.026816464762185833 4.094089857719125 4.4518901004287885 -1.8792201525324512 -0.9730425523084619 3.894370988837464 0.4401356490898851 -0.6032400411880116 -0.999254958958828 0.41914560658288974 -0.589217911627098 0.24434297953564052 -0.3647852294538374 -0.9464763615056714 13.833462792956773 1.2664118014341479 0.19101600376860978 -0.943703627784779 3.278599232422035 0.08002544836571067 -17.853176576616118 0.23064823010144123 -8.31765907691923 3.0039175661479844 -17.006046935568154 80.55755907355532 15.335118446241044 2.316793905744169 -0.6605210679116468 5.990542766420285 55.256064895782586 14.334758616606218 -0.19344712539388398 -1.1617926342197609 4.55224107980971 -0.1441446952988937 -1.6206483940315595 -0.032171538166773817 0.025443632327416917 -56.219376912122485 0.0022377074358898583 -0.02777214869206573 -56.24601189915704 -38.7886551278682 0.009903880364880217 0.02341209696378634 0.03282676422778525 -0.031917191331024115 -0.03247583818096374 -0.03953750987181034 0.02354016598440464 0.011509971278873678 -36.660887117080065 -0.0008794116255282834 -0.026414104250774322 0.03243950833962579 0.037270342734533314 -0.002953783197399445 0.008942962090469245 0.04129155861949858 0.013779652652745247 -19.791600048489986 -0.04354715023148835 0.035793649704199404 -0.04657942763804457 -0.0338060819215184 -0.01890738791544356 -0.036928180943647464 -0.012555964047681003 0.03736160750329009 24.03148386586687 -0.01765767261746297 0.020498239040506912 28.855147948297915 -0.01287652274601068 -0.0003688810754748087 28.875828346562383 -0.016224921430588596 -0.00754416340907671 10.481432570368343 2.4267159720694065 14.99297714727085 -72.79743824291363 25.58259030798919 -18.06081290831058 16.744746048114337 -6.807579311856802 -71.94404401589046 -7.1391181802971 1.1139185411110522 -2.565438716226102 -0.45041769735769943 0.02079809294014899 -8.140682591086433 0.018206014478343305 0.020466022607846964 44.59049838649477 -0.04319405286920515 -0.008893444383990706 44.57307548773768 12.416076895339025 -0.015948421287365594 -0.004369315323254997 0.04279217994341832 0.03671581853461433 0.023628193636139664 -0.014522646636137393 -0.026489271811329696 0.025374349891501218 11.131780166093293 0.0071225142095541465 0.03431832215004687 -0.037214932722898504 -0.03787658642524619 0.035807826971630374 -0.0339561526608901 -0.01098862153077757 0.03247411443121635 4.742546761642628 0.025738816707269126 -0.012584503610235196 0.035059649806178886 0.018338126744872497 0.03161740322167219 0.01341781576968432 -0.0018223533374087232 -0.034076173063442745 -5.647961931012472 -0.017212652963544847 -0.019406174381670166 -6.759911237293993 0.029120674299390248 -0.006004601159052376 -6.722526040949604 0.04164689825791519 0.0020965961821334256 -0.019678807591538575 0.02005314856230373 -0.030314614510302446 8.085927779249412 3.4886174262300553 -19.234177640853893 0.018697539252463303 10.349375996044243 -0.013053259359235021 -5.61691475553248 -15.643182845950745 3.2186376763791564 0.0015622612227411891 0.0026461992789452386 -0.03241458091636649 -0.04419177990723277 4.652648788088281 0.04495937365823834 12.411231296460443 -8.265624406222608 6.848761910642567 0.013732878284315098 46.36232752273191 0.0281904029631076 -4.285929403670971 -14.781805340714309 -3.816594537110558 -0.012102005904843593 0.025551431680033026 -0.027619816642121705 0.018688209474335533 -10.752169583293927 -0.01801109894953402 
-0.034438432972974414 -0.028563916758494918 -0.020186208058546658 0.004861729263456859 0.029209453014232875 -0.013221840426000532 4.280670508660401 4.349438429694726 -1.8331639171824807 -0.9333373375101185 3.9020796971311844 0.4144489752954124 -0.6494238399142548 -1.0363329653513862 0.4784596644951784 -0.395055865639583 0.17508671776597945 -0.32242230587323756 -0.7324032614865357 13.8595191389109 0.6820761000951424 0.2985617431117006 -0.9445701992933871 1.942152004835121 0.3373893776205822 -17.896861059802763 0.16300284396701847 -8.515824827975699 2.961379985629844 -17.137354177622758 80.69318689151703 15.355434762734712 2.2756579745362915 -0.5034982179419669 5.758576114774755 54.54831140590576 14.460918501791197 -0.19964299789656156 -0.945523924825618 4.5277404105948875 -0.11105080236718956 -1.5764533283199362 -0.030083227670231173 -0.019313504984065533 -56.24614792407293 -0.010018180473844241 0.019175352321182927 -56.254121867743194 -38.731099853853976 -0.009076425530392132 0.04386797871316037 0.04685788931811311 -0.0075256114148142626 0.019189555767844767 0.047402648720318005 -0.033338707852798376 -0.012469651969457193 -36.64936318535922 0.009462026782862312 0.025833135458360898 0.013484615662374917 0.016206430821495876 0.03061447361156695 -0.037619300174965835 -0.010497458501037473 0.02309386332496562 -19.762000163361286 -0.0368397175878293 0.03628252477966892 -0.028637062508705027 0.003598460628380685 -0.03185611342701789 0.0002141447905822685 0.028312738484975584 0.0016519285668310688 24.078873102161978 -0.001547049110396566 -0.022978966717892377 28.90080750075509 0.04046225131098725 -0.041426231012719764 28.861595128903964 0.03618797071422139 -0.020850903112837653 10.298577932935043 2.3271843766334697 14.937228089106656 -72.8262255094819 26.35001772311846 -16.897478190604723 17.767282042664853 -8.25095112945409 -73.68028120137016 -6.203056294500785 1.5035361812695824 -3.8938800805566363 -0.49809658815443664 0.049132547682936595 -8.117341689806171 0.0021194489669350614 -0.028923999752670536 44.540057103539475 -0.04455543061220836 -0.011124813051014294 44.52930008356099 12.438278342833376 -0.006998146496104493 0.0017845902713453465 0.030267346322401623 0.008706670420759744 0.0435963600280453 0.018845999498373137 -0.021548046767864967 0.03997100670046893 11.139929052743113 -0.04602256150832472 -0.02292953876084961 0.0313020919309721 0.04250469413148864 0.04848090357228306 -0.025726345547175757 0.017515295725140486 0.019016143539266214 4.812020196808127 -0.013273810396173376 -0.004852815639763222 0.03939656963099272 0.010711664262095475 0.04307447832499524 -0.01243707983553379 0.041190257972831046 0.0036675310402302184 -5.5585065214707186 0.02687754365868266 0.04187161657384602 -6.74848189369494 0.030059919442469416 -0.025819100467518445 -6.710117048382927 0.006482939005024475 -0.03661960566339304 0.028872726982736702 0.043191368026050656 0.007799222058790938 8.033048470723974 3.4664329468900323 -19.21561533435971 -0.03751547144671882 10.386531486315187 -0.031029676637287684 -5.571414074655512 -15.688899915463232 3.1767193687595654 -0.039308659489249206 0.0028824620124055116 -0.041193059078047545 -0.009104374999894147 4.684672852190486 0.04342196892261464 12.487701306546803 -8.22069252241428 6.882534898458449 0.004901224808215773 46.33077605254775 0.0282961715183368 -4.331513397654107 -14.773801025435784 -3.8196015718363543 -0.01915255294572616 0.006534142218710856 -0.048190739997866855 -0.010930781247754266 -10.755738750282129 0.018412322079388335 
0.02237408063893927 -0.02829651735852532 -0.03200242590909744 0.015532523577496689 -0.041338545249837405 0.014616546565576658 4.38710280402708 4.243084485452375 -1.8758535908247418 -0.8850523955391717 3.8805231734488825 0.42628913753587716 -0.6105320263679047 -1.0359927712299781 0.4305998578788627 -0.24779194321232983 0.18973250029445896 -0.34865841068890463 -0.5258593916892164 13.939306500301248 0.08970919454065375 0.3090815507480341 -0.9866904783408089 0.5772163742750879 0.5563949296265629 -18.04035772051877 0.02907574582374109 -8.686004452829607 2.968414823573588 -17.298740499959077 80.92986938591429 15.317572594267906 2.0057086798078116 -0.2682660710715269 5.5737309260500405 53.49906754105229 14.601683995743128 -0.1919070475624438 -0.6919726066010327 4.551271337357007 -0.0891157980855127 -1.5766630650444142 0.02112055467402339 -0.0485827886111754 -56.20968118622659 0.027240240702981706 0.022648475010388306 -56.232336343669694 -38.80287598720761 0.0058256135110552965 -0.025051486184342015 0.008702783480214093 -0.02848124038700504 0.0440782591100394 -0.031069971735725947 0.01671694378259273 -0.04257888477011844 -36.71859773534136 0.00012079205198744833 -0.04968937419633689 0.0379678051248281 -0.004297653612199723 0.02244100095854572 -0.02610648868120701 -0.02572334635984539 -0.016979713672910776 -19.80280509517378 -0.026956663332460374 0.017232442402997997 0.0412293275593988 0.028167370691193534 -0.022972323685717142 0.01175127472855173 0.04194458536469975 -0.023755132243166888 24.050849922869098 -0.044499357311672136 -0.04410017895850229 28.9057231399757 0.00501974878844983 0.04440649871071824 28.90676165046092 -0.016091848121925777 -0.03041215840714918 10.04733171139762 2.3488989183299704 15.00698134051208 -72.99560111449965 27.116824492530483 -15.819565263108103 18.16623016222283 -8.95017173576403 -75.60426467724426 -5.567259407093064 2.081994970382092 -5.119272769983242 -0.48346277961601836 0.07374902487475098 -8.11344937641886 0.008576329709251236 0.010032967321481795 44.60541563853753 -0.031874395671669935 0.017106179625495575 44.577802226096274 12.421047007347553 -0.007490778907201124 0.0267201559770761 0.0020472971242958406 -0.03801228866742771 0.03650762859266762 -0.017473055920417604 -0.012130429048562418 0.03268585917438732 11.08344229619826 -0.015060520894585979 -0.0027894971809249735 -0.03485141535699865 -0.03073522180616502 -0.0215896976330098 0.04083518417009354 0.016878151587997103 -0.011059475879127036 4.781331514561797 0.013216237132599557 0.010376834439973507 0.02490985562418158 0.03235017379297949 0.006614375305843417 -0.007182286292255575 -0.034507697702928185 0.025589948723393888 -5.560172275473687 -0.04583940160475751 0.03939629254641073 -6.7497871098262365 -0.03694829597612759 0.040817687550555655 -6.718382505307163 0.02206680904699428 -0.013438227851731351 0.011269221286037256 -0.0034477256260506965 -0.027386691203549137 8.029106053663728 3.4911545647355844 -19.178312420388018 -0.008150635290879615 10.368047459225387 0.0038354070718138733 -5.633590724826606 -15.626217092451295 3.195760241954728 -0.04755482700064967 -0.0288446735503008 -0.027743985013538277 -0.033095086789090615 4.7151940893089455 -0.0301948494433059 12.430312778271944 -8.258026273922557 6.9263697989257915 -0.013257949989335497 46.339137598014766 -0.008681116956726445 -4.316534735798422 -14.722465700526085 -3.8281018391447104 -0.04839341659933806 0.0207867734098654 -0.030642257406940827 -0.0026719479599391213 -10.746755613223256 -0.03741433011641259 
-0.04446584354051413 -0.03973543831714861 -0.0479909561732222 0.0481715530774849 -0.02808289119661175 0.038271063071664856 4.692663784391805 4.131837002248413 -1.9424599316596334 -0.8745301604873024 3.88630714860587 0.39944418825019345 -0.6182230506950573 -1.0750448985291994 0.49047474878214925 -0.09988943365576393 0.15738865989880235 -0.31984196091493233 -0.3011294756862751 13.89415499086658 -0.4802125170936216 0.3371102382118876 -1.055374237806777 -0.7154969681942129 0.7951568039420586 -18.144724759700086 -0.11066931408652575 -8.815668724721672 3.0728645679026276 -17.50509097830047 81.19689217855789 14.762146702848934 1.8241010763621175 -0.14169616053348716 5.497263449570415 52.32607133048445 14.751533805859744 -0.1422154039107599 -0.5027368755239184 4.573243100977596 -0.1582944388593055 -1.5623373424026692 -0.018333925628884695 -0.01016697315123483 -56.25076841789027 -0.01999834175044422 0.008454669545012684 -56.1994150535036 -38.75067930351783 0.02510546539179752 -0.047597338782955335 0.014972215428048592 0.020837015809633052 -0.0029850783823424853 0.003390325450566292 0.02295324299475787 -0.04733383117857579 -36.72773611810478 0.021903962089631617 -0.00352986522271697 -0.04200083277263786 0.01429951689573595 -0.03806131066357548 -0.012183800189367124 0.035607558017418835 0.024987767295393606 -19.752431500551538 -0.0192719820505781 0.03950567727742935 -0.011361510457692323 -0.039058913838348974 0.01601069506656948 -0.03927752356422589 -0.0425873434326059 -0.03840602109694337 24.03667805229783 -0.040670343435034714 0.0076092132802093315 28.8321788288886 -0.010828467374748133 0.04386602348515306 28.888305580831677 0.027170934593511054 -0.010346250381447254 9.949801709407454 2.322399987752678 15.006158238092612 -73.12840817494147 27.522589248770284 -14.927280456253705 17.842219307265367 -9.185773019095897 -76.3694413768418 -5.410507711936262 2.402334058226243 -5.851137559161015 -0.5057040274072186 0.05797332286229854 -8.128956309494294 -0.006104039167830604 0.040046101216809404 44.567373802081185 0.040983491291656564 -0.03707266733948411 44.54257213779207 12.469497814691202 -0.014827236363169105 0.009530091686530883 0.0030275950694293894 0.049473541138760534 0.040592073634173505 0.009886175507581465 0.020672750071966214 -0.03367776213786384 11.08708347371136 -0.01111295589801452 -0.013666741895099763 0.0008750961909009305 0.03810445228351765 -0.035246589958142685 -0.047437639017660266 0.021291367438314213 -0.02274907000435866 4.793344246100103 -0.014166681419003633 0.012339564336087832 0.024575349497813412 -0.005093837453128649 0.04732437589698428 -0.0073229640555155405 0.0046409796309122816 0.025553816783581 -5.640241340393372 0.01780370186583707 -0.04715589109150787 -6.725722350117258 -0.03627246940904636 -0.04640388817196414 -6.686722154889824 -0.020898230351557922 0.0039025630496890814 0.029040910460203337 0.018781925119079487 -0.02112494751156709 8.090942816741586 3.530305261623401 -19.174579224002777 0.01560244780703703 10.386799867824381 0.04174373231657455 -5.624746886654272 -15.661149739339496 3.2246888616776843 0.014494922482618626 -0.043604663378880484 0.02182370292657206 0.03775843881046632 4.697802441044253 -0.008719103076689366 12.473921276394718 -8.223750963129515 6.897247663460701 -0.010341732810158778 46.34624804069654 -0.01986169851928754 -4.365306208653832 -14.763551745077137 -3.812299268633386 -0.015278655334736302 -0.00015822847995179787 -0.007044931128466544 0.04119438551193848 -10.73831279932246 -0.020841007631920122 
